<svg height="512pt" viewBox="0 -79 512 512" width="512pt" xmlns="http://www.w3.org/2000/svg"><path d="m494.34375 0h-476.6875c-4.554688-.0195312-8.933594 1.757812-12.183594 4.941406-3.484375 3.316406-5.4609372 7.90625-5.472656 12.714844v317.792969c.0117188 4.804687 1.988281 9.398437 5.472656 12.710937 3.253906 3.1875 7.628906 4.964844 12.183594 4.941406h476.6875c9.742188-.027343 17.628906-7.914062 17.65625-17.652343v-317.792969c-.027344-9.738281-7.914062-17.6289062-17.65625-17.65625zm0 0" fill="#c03a2b"/><path d="m194.207031 176.550781-48.550781 44.140625-140.183594 127.46875c-3.484375-3.3125-5.4609372-7.90625-5.472656-12.710937v-317.792969c.0117188-4.808594 1.988281-9.402344 5.472656-12.714844l140.183594 127.472656zm0 0" fill="#285680"/><path d="m512 17.65625v158.894531h-317.792969l-48.550781-44.136719-140.183594-127.46875c3.25-3.1875 7.628906-4.9648432 12.183594-4.945312h476.6875c9.742188.0273438 17.628906 7.917969 17.65625 17.65625zm0 0" fill="#e6e7e8"/></svg>